<?xml version="1.0" encoding="UTF-8" standalone="no"?>
<!DOCTYPE svg PUBLIC "-//W3C//DTD SVG 1.1//EN"
 "http://www.w3.org/Graphics/SVG/1.1/DTD/svg11.dtd">
<!-- Generated by graphviz version 2.47.0 (20210316.0004)
 -->
<!-- Title: dependencies Pages: 1 -->
<svg width="504pt" height="284pt"
 viewBox="0.00 0.00 504.00 284.00" xmlns="http://www.w3.org/2000/svg" xmlns:xlink="http://www.w3.org/1999/xlink">
<g id="graph0" class="graph" transform="scale(1 1) rotate(0) translate(4 280)">
<title>dependencies</title>
<polygon fill="white" stroke="transparent" points="-4,4 -4,-280 500,-280 500,4 -4,4"/>
<text text-anchor="start" x="227.01" y="-42.4" font-family="Times-12" font-weight="bold" font-size="14.00">Legend</text>
<polygon fill="#ffffb3" stroke="transparent" points="14,-10 14,-30 34,-30 34,-10 14,-10"/>
<text text-anchor="start" x="37.63" y="-15.4" font-family="Times-12" font-size="14.00"> &#160;Declarations</text>
<polygon fill="#8dd3c7" stroke="transparent" points="127,-10 127,-30 147,-30 147,-10 127,-10"/>
<text text-anchor="start" x="150.73" y="-15.4" font-family="Times-12" font-size="14.00"> &#160;Module</text>
<polygon fill="#80b1d3" stroke="transparent" points="213,-10 213,-30 233,-30 233,-10 213,-10"/>
<text text-anchor="start" x="236.78" y="-15.4" font-family="Times-12" font-size="14.00"> &#160;Bootstrap</text>
<polygon fill="#fdb462" stroke="transparent" points="310,-10 310,-30 330,-30 330,-10 310,-10"/>
<text text-anchor="start" x="333.67" y="-15.4" font-family="Times-12" font-size="14.00"> &#160;Providers</text>
<polygon fill="#fb8072" stroke="transparent" points="406,-10 406,-30 426,-30 426,-10 406,-10"/>
<text text-anchor="start" x="429.73" y="-15.4" font-family="Times-12" font-size="14.00"> &#160;Exports</text>
<g id="clust1" class="cluster">
<title>cluster_TodosModule</title>
<polygon fill="none" stroke="black" stroke-dasharray="1,5" points="114,-70 114,-268 382,-268 382,-70 114,-70"/>
</g>
<g id="clust3" class="cluster">
<title>cluster_TodosModule_imports</title>
<polygon fill="none" stroke="black" points="274,-78 274,-130 374,-130 374,-78 274,-78"/>
</g>
<g id="clust6" class="cluster">
<title>cluster_TodosModule_providers</title>
<polygon fill="none" stroke="black" points="122,-78 122,-130 266,-130 266,-78 122,-78"/>
</g>
<g id="clust4" class="cluster">
<title>cluster_TodosModule_exports</title>
<polygon fill="none" stroke="black" points="200,-208 200,-260 312,-260 312,-208 200,-208"/>
</g>
<!-- JobsModule -->
<g id="node1" class="node">
<title>JobsModule</title>
<polygon fill="#8dd3c7" stroke="black" points="366.44,-122 363.44,-126 342.44,-126 339.44,-122 281.56,-122 281.56,-86 366.44,-86 366.44,-122"/>
<text text-anchor="middle" x="324" y="-99.8" font-family="Times,serif" font-size="14.00">JobsModule</text>
</g>
<!-- TodosModule -->
<g id="node2" class="node">
<title>TodosModule</title>
<polygon fill="#8dd3c7" stroke="black" points="303.05,-187 300.05,-191 279.05,-191 276.05,-187 208.95,-187 208.95,-151 303.05,-151 303.05,-187"/>
<text text-anchor="middle" x="256" y="-164.8" font-family="Times,serif" font-size="14.00">TodosModule</text>
</g>
<!-- JobsModule&#45;&gt;TodosModule -->
<g id="edge1" class="edge">
<title>JobsModule&#45;&gt;TodosModule</title>
<path fill="none" stroke="black" d="M292.53,-122.11C292.53,-122.11 292.53,-140.99 292.53,-140.99"/>
<polygon fill="black" stroke="black" points="289.03,-140.99 292.53,-150.99 296.03,-140.99 289.03,-140.99"/>
</g>
<!-- TodosService  -->
<g id="node3" class="node">
<title>TodosService </title>
<polygon fill="#fb8072" stroke="black" points="304.48,-252 207.52,-252 207.52,-216 304.48,-216 304.48,-252"/>
<text text-anchor="middle" x="256" y="-229.8" font-family="Times,serif" font-size="14.00">TodosService </text>
</g>
<!-- TodosModule&#45;&gt;TodosService  -->
<g id="edge2" class="edge">
<title>TodosModule&#45;&gt;TodosService </title>
<path fill="none" stroke="black" stroke-dasharray="5,2" d="M256,-187.11C256,-187.11 256,-205.99 256,-205.99"/>
<polygon fill="black" stroke="black" points="252.5,-205.99 256,-215.99 259.5,-205.99 252.5,-205.99"/>
</g>
<!-- TodosService -->
<g id="node4" class="node">
<title>TodosService</title>
<ellipse fill="#fdb462" stroke="black" cx="194" cy="-104" rx="64.26" ry="18"/>
<text text-anchor="middle" x="194" y="-99.8" font-family="Times,serif" font-size="14.00">TodosService</text>
</g>
<!-- TodosService&#45;&gt;TodosModule -->
<g id="edge3" class="edge">
<title>TodosService&#45;&gt;TodosModule</title>
<path fill="none" stroke="black" d="M233.43,-118.43C233.43,-118.43 233.43,-140.89 233.43,-140.89"/>
<polygon fill="black" stroke="black" points="229.93,-140.89 233.43,-150.89 236.93,-140.89 229.93,-140.89"/>
</g>
</g>
</svg>
